<?xml version="1.0" standalone="no"?>
<!DOCTYPE svg PUBLIC "-//W3C//DTD SVG 20010904//EN"
 "http://www.w3.org/TR/2001/REC-SVG-20010904/DTD/svg10.dtd">
<svg version="1.0" xmlns="http://www.w3.org/2000/svg"
 width="512.000000pt" height="512.000000pt" viewBox="0 0 512.000000 512.000000"
 preserveAspectRatio="xMidYMid meet">
<metadata>
Created by potrace 1.14, written by Peter Selinger 2001-2017
</metadata>
<g transform="translate(0.000000,512.000000) scale(0.100000,-0.100000)"
fill="#000000" stroke="none">
<path d="M2051 4828 c-397 -230 -500 -294 -488 -302 8 -6 505 -294 1106 -641
l1091 -630 -3 -694 -2 -693 -595 -344 c-327 -189 -598 -344 -601 -344 -3 0
-273 154 -600 343 l-594 343 -3 1277 c-1 702 -5 1277 -9 1277 -3 0 -231 -129
-505 -287 l-498 -288 3 -1283 2 -1284 1090 -630 c600 -347 1097 -632 1105
-635 12 -3 2185 1240 2213 1266 4 4 -217 138 -493 296 -275 159 -500 291 -500
295 0 3 225 135 500 294 l500 288 0 697 0 696 -1101 635 c-605 349 -1104 636
-1107 637 -4 1 -234 -129 -511 -289z"/>
</g>
</svg>
